<?xml version="1.0" encoding="UTF-8" standalone="no"?>
<svg
   xmlns:dc="http://purl.org/dc/elements/1.1/"
   xmlns:cc="http://creativecommons.org/ns#"
   xmlns:rdf="http://www.w3.org/1999/02/22-rdf-syntax-ns#"
   xmlns:svg="http://www.w3.org/2000/svg"
   xmlns="http://www.w3.org/2000/svg"
   xmlns:xlink="http://www.w3.org/1999/xlink"
   viewBox="0 0 244 70"
   id="svg4136"
   height="70"
   width="244"
   version="1.1">
  <metadata
     id="metadata4183">
    <rdf:RDF>
      <cc:Work
         rdf:about="">
        <dc:format>image/svg+xml</dc:format>
        <dc:type
           rdf:resource="http://purl.org/dc/dcmitype/StillImage" />
        <dc:title></dc:title>
      </cc:Work>
    </rdf:RDF>
  </metadata>
  <defs
     id="defs4181">
    <defs
       id="defs4146">
      <radialGradient
         gradientTransform="matrix(0.44122085,0,0,0.44122085,-45.980044,-130.48804)"
         gradientUnits="userSpaceOnUse"
         fy="368.26901"
         fx="176.73709"
         r="143.69025"
         cy="368.26901"
         cx="176.73709"
         id="grad1">
        <stop
           style="stop-color:#bed571;stop-opacity:1"
           id="stop4149"
           stop-opacity="1"
           stop-color="#c0e16e"
           offset="0%" />
        <stop
           style="stop-color:#a0c636;stop-opacity:1"
           id="stop4151"
           stop-opacity="1"
           stop-color="#a0cb32"
           offset="100%" />
      </radialGradient>
    </defs>
    <radialGradient
       r="143.69025"
       fy="368.26901"
       fx="176.73709"
       cy="368.26901"
       cx="176.73709"
       gradientTransform="matrix(0.48240704,0.0109979,-0.0109979,0.48240704,-46.209005,-144.59939)"
       gradientUnits="userSpaceOnUse"
       id="radialGradient3417"
       xlink:href="#grad1" />
  </defs>
  <g
     id="g3469">
    <g
       id="g3434">
      <path
         d="M 2.8599489,28.06711 28.066711,2.8599126 c 3.813273,-3.81325269 10.052962,-3.81329892 13.866216,4.11e-5 l 25.20705,25.2067173 c 3.81329,3.813288 3.813385,10.052961 1.44e-4,13.866238 L 41.93337,67.139955 c -3.813268,3.813344 -10.052959,3.813385 -13.866247,9.8e-5 L 2.8599566,41.933294 C -0.95330927,38.120029 -0.95333123,31.880358 2.8599489,28.06711 Z"
         style="fill:#5091ce"
         id="path3389" />
      <path
         d="M 7.9597177,16.295056 40.89434,2.6533358 c 4.982271,-2.06368711 10.746897,0.3242619 12.810613,5.306498 L 67.346642,40.894322 C 69.41023,45.87659 67.022436,51.641219 62.040153,53.704953 L 29.105679,67.346635 C 24.123408,69.410364 18.358732,67.022427 16.295046,62.040243 L 2.6533653,29.105673 C 0.58964494,24.123377 2.9775873,18.358753 7.9597177,16.295056 Z"
         style="fill:url(#radialGradient3417);stroke:#ffffff;stroke-width:2.52200007"
         id="path3391" />
      <path
         d="M 14.186442,23.113207 41.312447,11.877505 c 2.167884,-0.898064 4.676306,0.141042 5.574224,2.309069 l 11.235861,27.125953 c 0.897859,2.167929 -0.141045,4.67622 -2.309073,5.574277 L 28.687457,58.122513 c -2.167883,0.89801 -4.676172,-0.140942 -5.574228,-2.308972 L 11.877516,28.687585 c -0.898058,-2.168033 0.140891,-4.676361 2.308926,-5.574378 z"
         style="fill:#ffffff;stroke:#ffffff;stroke-width:2.78796554"
         id="path3393" />
      <path
         d="m 18.563159,16.480853 c 2.191844,-0.90789 4.51107,0.03101 5.182661,1.652377 l 15.222825,36.751147 c 0.671924,1.622168 -0.300981,3.923785 -2.496284,4.83311 l -2.193986,0.908778 c -2.195102,0.909242 -4.510498,-0.02963 -5.182664,-1.652384 L 13.872886,22.222735 c -0.671139,-1.621311 0.245401,-3.900756 2.496289,-4.833103 z"
         style="fill:#ffffff;stroke:#a7c943;stroke-width:0.77793151"
         id="path3415" />
      <path
         d="m 53.569818,41.245595 a 1.43304,1.43304 0 0 1 1.400005,1.465329 1.43304,1.43304 0 1 1 -1.400005,-1.465329 z m -5.348784,2.215538 a 1.43304,1.43304 0 0 1 1.400006,1.46533 1.43304,1.43304 0 1 1 -1.400006,-1.46533 z m -5.348783,2.215539 a 1.43304,1.43304 0 0 1 1.400005,1.46533 1.43304,1.43304 0 1 1 -1.400005,-1.46533 z m 8.503964,-9.726903 a 1.43304,1.43304 0 0 1 1.400006,1.46533 1.43304,1.43304 0 1 1 -1.400006,-1.46533 z m -5.348783,2.215539 a 1.43304,1.43304 0 0 1 1.400006,1.465329 1.43304,1.43304 0 1 1 -1.400006,-1.465329 z m -5.348784,2.215539 a 1.43304,1.43304 0 0 1 1.400006,1.465329 1.43304,1.43304 0 1 1 -1.400006,-1.465329 z m 8.503964,-9.726903 a 1.43304,1.43304 0 0 1 1.400006,1.46533 1.43304,1.43304 0 1 1 -1.400006,-1.46533 z m -5.348783,2.215538 a 1.43304,1.43304 0 0 1 1.400005,1.46533 1.43304,1.43304 0 1 1 -1.400005,-1.46533 z m -5.348783,2.215539 a 1.43304,1.43304 0 0 1 1.400005,1.46533 1.43304,1.43304 0 1 1 -1.400005,-1.46533 z"
         style="fill:#a7c943"
         id="path4314" />
    </g>
    <g
       style="fill:#5091ce"
       id="g3441">
      <path
         id="path4179"
         d="m 103.00001,16.999963 -3.000115,0 0,15.90001 -14.99998,-15.90001 -2.999915,0 0,21.00004 2.999915,0 0,-16.14001 14.99998,16.14001 3.000115,0 0,-21.00004 z" />
      <path
         id="path4177"
         d="m 108.99995,19.999943 18.00003,0 0,-2.99998 -21.00001,0 0,21.00004 21.00001,0 0,-2.99997 -18.00003,0 0,-6.00008 14.99994,0 0,-2.99996 -14.99994,0 0,-6.00005 z" />
      <path
         id="path4175"
         d="m 147.99992,35.000033 c -0.55497,-0.005 -1.06003,-0.14507 -1.50991,-0.41001 -0.45006,-0.27006 -0.81005,-0.63003 -1.08006,-1.08007 -0.26496,-0.44994 -0.40506,-0.95494 -0.41002,-1.51 l 0,-14.99999 -2.99998,0 0,14.99999 c -0.005,0.55506 -0.14505,1.06006 -0.41,1.51 -0.27001,0.45004 -0.62501,0.81001 -1.08007,1.08007 -0.44987,0.26494 -0.95494,0.40499 -1.5099,0.41001 l -3.00007,0 c -0.55497,-0.005 -1.05998,-0.14507 -1.51002,-0.41001 -0.44994,-0.27006 -0.80989,-0.63003 -1.07995,-1.08007 -0.26507,-0.44994 -0.40501,-0.95494 -0.41003,-1.51 l 0,-14.99999 -2.99997,0 0,14.99999 c 0.005,0.85003 0.17007,1.63997 0.48501,2.37005 0.31992,0.72492 0.75499,1.35994 1.30995,1.89993 0.55507,0.5451 1.19506,0.96508 1.915,1.27005 0.715,0.29998 1.48,0.455 2.29001,0.46002 l 3.00007,0 c 0.89999,0 1.72496,-0.17 2.47497,-0.51502 0.75002,-0.34003 1.42499,-0.84997 2.02494,-1.525 0.60007,0.67503 1.27502,1.18497 2.02505,1.525 0.75002,0.34502 1.57499,0.51502 2.47498,0.51502 l 3.00008,0 c 0.8449,-0.005 1.63001,-0.17 2.35497,-0.48996 0.72492,-0.32008 1.35994,-0.75999 1.90503,-1.32008 0.54496,-0.55496 0.96993,-1.19495 1.27493,-1.91005 0.30508,-0.71994 0.46001,-1.47994 0.46496,-2.27996 l 0,-14.99999 -2.99992,0 0,14.99999 c -0.005,0.55506 -0.13999,1.06006 -0.41,1.51 -0.27007,0.45004 -0.62508,0.81001 -1.07996,1.08007 -0.45005,0.26494 -0.95511,0.40499 -1.51001,0.41001 l -3.00008,0 z" />
      <path
         id="path4173"
         d="m 159.99995,28.999953 15,0 0,-2.99996 -15,0 0,2.99996 z" />
      <path
         id="path4171"
         d="m 195.99994,19.999943 0,-2.99998 -20.99999,0 0,2.99998 8.99998,0 0,18.00006 2.99998,0 0,-18.00006 9.00003,0 z" />
      <path
         id="path4169"
         d="m 201.99998,19.999943 18.00003,0 0,-2.99998 -21,0 0,21.00004 21,0 0,-2.99997 -18.00003,0 0,-6.00008 14.99994,0 0,-2.99996 -14.99994,0 0,-6.00005 z" />
      <path
         id="path4781"
         d="m 225.99976,16.999963 -2.99975,0 0,21.00004 20.99989,0 0,-2.99997 -18.00014,0 0,-18.00007 z" />
      <path
         id="path4755"
         d="m 89.126122,46.202007 -2.662507,0 0,5.95101 -1.788057,0 0,-5.95101 -2.675558,0 0,-1.256094 7.126122,0 0,1.256094 z" />
      <path
         id="path4757"
         d="m 90.05747,44.945913 5.416376,0 0,1.256094 -3.62832,0 0,1.678227 3.302032,0 0,1.256096 -3.302032,0 0,1.760593 3.693576,0 0,1.256094 -5.481632,0 0,-7.207104 z" />
      <path
         id="path4759"
         d="m 101.64048,46.202007 -1.944676,0 q -0.05221,0.978109 -0.117464,1.781186 -0.06526,0.803077 -0.18272,1.451718 -0.104414,0.638341 -0.287133,1.132544 -0.182722,0.4942 -0.469855,0.854556 -0.182722,0.236803 -0.417649,0.391243 -0.221875,0.154438 -0.469853,0.247101 -0.247979,0.09266 -0.495958,0.12355 -0.234928,0.04119 -0.443751,0.04119 -0.300185,0 -0.509008,-0.04119 -0.195773,-0.03088 -0.391546,-0.10296 l 0.195773,-1.214911 q 0.0783,0.02059 0.156618,0.03088 0.07831,0.0103 0.156618,0.0103 0.208824,0 0.404597,-0.08237 0.208824,-0.08236 0.35239,-0.277988 0.195772,-0.22651 0.339339,-0.658938 0.143566,-0.44272 0.247979,-1.122246 0.117463,-0.679527 0.182721,-1.616451 0.06526,-0.947221 0.09136,-2.203315 l 5.390268,0 0,7.207104 -1.78805,0 0,-5.95101 z" />
      <path
         id="path4761"
         d="m 104.99533,44.945913 5.41637,0 0,1.256094 -3.62832,0 0,1.678227 3.30204,0 0,1.256096 -3.30204,0 0,1.760593 3.69358,0 0,1.256094 -5.48163,0 0,-7.207104 z" />
      <path
         id="path4763"
         d="m 115.37759,51.370531 q -0.24798,0.0309 -0.509,0.04119 -0.26103,0.0103 -0.56122,0.0103 -0.62647,0 -1.16158,-0.164735 -0.53511,-0.175028 -0.93971,-0.525089 -0.39155,-0.360355 -0.62647,-0.89574 -0.22188,-0.545681 -0.22188,-1.286982 0,-0.700119 0.22188,-1.2458 0.23492,-0.555977 0.65258,-0.936923 0.43069,-0.391244 1.01801,-0.59716 0.58732,-0.205917 1.30515,-0.205917 0.16967,0 0.41765,0.0103 0.24798,0.0103 0.40459,0.04119 l 0,-0.875149 1.74891,0 0,0.906036 q 0.24797,-0.05149 0.56121,-0.06177 0.32629,-0.02058 0.52206,-0.02058 0.63952,0 1.17464,0.185327 0.53511,0.175029 0.92665,0.545681 0.4046,0.360356 0.62647,0.906037 0.22189,0.535384 0.20883,1.245797 0.013,0.731009 -0.23492,1.286984 -0.24798,0.555977 -0.67868,0.936924 -0.4307,0.370652 -1.00497,0.566272 -0.56121,0.185326 -1.21379,0.185326 -0.20882,0 -0.4568,-0.0103 -0.23492,-0.02059 -0.4307,-0.06177 l 0,1.008997 -1.74891,0 0,-0.988403 z m 2.41454,-4.674321 q -0.13052,0.0103 -0.3524,0.02058 -0.22187,0.0103 -0.37849,0.04119 l 0,3.500594 q 0.11746,0.02058 0.27408,0.02058 0.16967,0 0.31324,0.0103 0.36544,-0.0103 0.67868,-0.113254 0.31324,-0.10296 0.54816,-0.329467 0.23493,-0.22651 0.36544,-0.566273 0.13052,-0.339764 0.11747,-0.82367 0.013,-0.823667 -0.4046,-1.286983 -0.41765,-0.463312 -1.16158,-0.473608 z m -3.02795,3.582959 q 0.10441,0 0.31324,0 0.22187,-0.0103 0.36543,-0.05148 l 0,-3.490297 q -0.13051,-0.02058 -0.30018,-0.02058 -0.16967,-0.0103 -0.31323,-0.0103 -0.71784,0 -1.20075,0.442722 -0.4829,0.432426 -0.4829,1.38994 0,0.833967 0.44375,1.286985 0.44375,0.453016 1.17464,0.453016 z" />
      <path
         id="path4765"
         d="m 121.99124,48.549465 q 0,-1.801776 1.00496,-2.769589 1.00498,-0.978106 2.87135,-0.978106 0.97886,0 1.70974,0.267694 0.73089,0.267692 1.21379,0.761894 0.48291,0.4942 0.71783,1.184022 0.23493,0.689824 0.23493,1.534085 0,1.801777 -1.01802,2.779883 -1.00496,0.96781 -2.85827,0.96781 -0.99192,0 -1.72281,-0.267691 -0.73088,-0.267693 -1.21379,-0.761894 -0.46986,-0.494201 -0.70478,-1.184024 -0.23493,-0.689824 -0.23493,-1.534084 z m 1.87943,0 q 0,0.545681 0.11745,1.008994 0.11747,0.453018 0.3524,0.782485 0.24798,0.329468 0.62647,0.514794 0.37849,0.185327 0.90056,0.185327 0.95275,0 1.47481,-0.586865 0.52207,-0.586865 0.52207,-1.904735 0,-0.525088 -0.11747,-0.978107 -0.10442,-0.453018 -0.33934,-0.792782 -0.23493,-0.339764 -0.61342,-0.525088 -0.3785,-0.195622 -0.92665,-0.195622 -0.95277,0 -1.47483,0.607457 -0.52205,0.597159 -0.52205,1.884142 z" />
      <path
         id="path4767"
         d="m 136.15111,49.13633 -3.34118,0 0,3.016687 -1.78807,0 0,-7.207104 1.78807,0 0,2.934321 3.34118,0 0,-2.934321 1.78805,0 0,7.207104 -1.78805,0 0,-3.016687 z" />
      <path
         id="path5624"
         d="m 144.83109,47.522079 c -1.33356,1.539045 -2.65744,3.086462 -3.98471,4.630938 l -1.3443,0 0,-7.207104 1.78805,0 c -5.3e-4,1.522106 0.002,3.044213 -0.002,4.566316 1.33029,-1.523409 2.66329,-3.04445 3.99535,-4.566316 l 1.33126,0 0,7.207104 -1.78805,0 c -0.002,-1.703945 2.6e-4,-3.072549 0.004,-4.630938 z" />
      <path
         id="path4771"
         d="m 154.1936,52.153017 -1.78806,0 0,-2.851954 -0.9397,0.195623 -1.90552,2.656331 -2.0752,0 1.87942,-2.398936 0.78309,-0.442721 q -0.41765,-0.08236 -0.78309,-0.247101 -0.36544,-0.175031 -0.63952,-0.442723 -0.27409,-0.267692 -0.4307,-0.628047 -0.15662,-0.370652 -0.15662,-0.833967 0,-0.648639 0.28713,-1.09136 0.28713,-0.442721 0.79615,-0.710413 0.509,-0.277989 1.21379,-0.391244 0.70477,-0.12355 1.52702,-0.12355 0.22188,0 0.50901,0.0103 0.28713,0.0103 0.58732,0.03087 0.31323,0.02058 0.60037,0.05149 0.30017,0.03086 0.53511,0.08237 l 0,7.135033 z m -2.45369,-6.053968 q -0.35239,0 -0.66562,0.05149 -0.31324,0.05148 -0.54816,0.175028 -0.23493,0.123551 -0.3785,0.339765 -0.13052,0.216213 -0.13052,0.555976 0,0.319173 0.13052,0.545681 0.13052,0.216214 0.36544,0.360355 0.23493,0.133848 0.54817,0.195623 0.31323,0.06177 0.67867,0.06177 l 0.66563,0 0,-2.234203 q -0.14357,-0.02058 -0.30019,-0.03086 -0.14356,-0.02058 -0.36544,-0.02058 z" />
      <path
         id="path4775"
         d="m 169.29358,53.44 -1.266,0 -0.19577,-1.286983 -5.87318,0 -0.19578,1.286983 -1.26599,0 0,-2.543077 0.96581,0 q 0.0914,-0.113255 0.30018,-0.504498 0.20883,-0.391242 0.41766,-1.101658 0.20881,-0.720711 0.35238,-1.791481 0.14357,-1.081065 0.13052,-2.553373 l 5.46858,0 0,5.95101 1.16159,0 0,2.543077 z m -2.94965,-2.543077 0,-4.694916 -2.02298,0 q -0.0783,1.832664 -0.3785,3.006394 -0.28713,1.163431 -0.58732,1.688522 l 2.9888,0 z" />
      <path
         id="path4777"
         d="m 175.46306,46.202007 -1.94467,0 q -0.0523,0.978109 -0.11747,1.781186 -0.0653,0.803077 -0.18272,1.451718 -0.10441,0.638341 -0.28713,1.132544 -0.18272,0.4942 -0.46985,0.854556 -0.18273,0.236803 -0.41765,0.391243 -0.22187,0.154438 -0.46985,0.247101 -0.24798,0.09266 -0.49596,0.12355 -0.23493,0.04119 -0.44375,0.04119 -0.30019,0 -0.50902,-0.04119 -0.19577,-0.03088 -0.39154,-0.10296 l 0.19577,-1.214911 q 0.0783,0.02059 0.15662,0.03088 0.0783,0.0103 0.15662,0.0103 0.20883,0 0.4046,-0.08237 0.20882,-0.08236 0.35239,-0.277988 0.19578,-0.22651 0.33934,-0.658938 0.14357,-0.44272 0.24797,-1.122246 0.11747,-0.679527 0.18273,-1.616451 0.0653,-0.947221 0.0914,-2.203315 l 5.39027,0 0,7.207104 -1.78805,0 0,-5.95101 z" />
      <path
         id="path4779"
         d="m 184.80856,52.153017 -1.78806,0 0,-2.851954 -0.9397,0.195623 -1.90552,2.656331 -2.0752,0 1.87942,-2.398936 0.78309,-0.442721 q -0.41765,-0.08236 -0.78309,-0.247101 -0.36544,-0.175031 -0.63952,-0.442723 -0.27409,-0.267692 -0.4307,-0.628047 -0.15662,-0.370652 -0.15662,-0.833967 0,-0.648639 0.28713,-1.09136 0.28713,-0.442721 0.79615,-0.710413 0.509,-0.277989 1.21379,-0.391244 0.70477,-0.12355 1.52701,-0.12355 0.22189,0 0.50902,0.0103 0.28713,0.0103 0.58732,0.03087 0.31323,0.02058 0.60037,0.05149 0.30017,0.03086 0.53511,0.08237 l 0,7.135033 z m -2.45369,-6.053968 q -0.35239,0 -0.66562,0.05149 -0.31324,0.05148 -0.54816,0.175028 -0.23493,0.123551 -0.3785,0.339765 -0.13052,0.216213 -0.13052,0.555976 0,0.319173 0.13052,0.545681 0.13052,0.216214 0.36544,0.360355 0.23493,0.133848 0.54817,0.195623 0.31323,0.06177 0.67867,0.06177 l 0.66563,0 0,-2.234203 q -0.14357,-0.02058 -0.30019,-0.03086 -0.14357,-0.02058 -0.36544,-0.02058 z" />
      <path
         id="path4784"
         d="m 191.89492,44.945913 5.6252,0 0,1.256094 -3.83715,0 0,1.503197 q 0.22188,-0.03085 0.53511,-0.06177 0.32629,-0.03086 0.63953,-0.03086 0.73088,0 1.34431,0.113255 0.61342,0.113255 1.04411,0.380948 0.44376,0.257395 0.69174,0.689823 0.24797,0.42213 0.24797,1.039881 0,0.607456 -0.26103,1.060475 -0.24798,0.453015 -0.73088,0.751596 -0.46985,0.298582 -1.14853,0.453018 -0.66563,0.154438 -1.50093,0.154438 -0.22187,0 -0.56121,-0.0103 -0.32629,-0.0103 -0.70479,-0.03088 -0.36543,-0.02058 -0.73088,-0.05149 -0.36544,-0.03089 -0.65257,-0.08237 l 0,-7.135032 z m 2.77997,6.146629 q 0.33934,0 0.62647,-0.06177 0.30019,-0.07207 0.52206,-0.205917 0.22188,-0.144142 0.35239,-0.360356 0.13051,-0.216213 0.13051,-0.525088 0,-0.370651 -0.14356,-0.597159 -0.14357,-0.22651 -0.39155,-0.350061 -0.24798,-0.133846 -0.57426,-0.175029 -0.31323,-0.04119 -0.67868,-0.04119 -0.18272,0 -0.45681,0.03088 -0.27407,0.02058 -0.37849,0.04119 l 0,2.19302 q 0.14357,0.03088 0.4307,0.04119 0.30019,0.0103 0.56122,0.0103 z" />
      <path
         id="path4786"
         d="m 204.66732,47.522079 c -1.33356,1.539045 -2.65744,3.086462 -3.98471,4.630938 l -1.3443,0 0,-7.207104 1.78805,0 c -5.3e-4,1.522106 0.002,3.044213 -0.002,4.566316 1.33029,-1.523409 2.66329,-3.04445 3.99535,-4.566316 l 1.33126,0 0,7.207104 -1.78805,0 c -0.002,-1.703945 2.6e-4,-3.072549 0.004,-4.630938 z" />
      <path
         id="path4788"
         d="m 208.81395,48.961299 0,-1.101657 0.31324,0 q 0.11746,0 0.28713,0 0.16967,0 0.33934,0 0.18272,-0.0103 0.35239,-0.02059 0.16967,-0.02059 0.27408,-0.04119 0.45681,-0.08237 0.78309,-0.288283 0.32629,-0.216214 0.32629,-0.576568 0,-0.494201 -0.40459,-0.669233 -0.39155,-0.185323 -1.04413,-0.185323 -0.58732,0 -1.09632,0.123548 -0.50901,0.12355 -0.77005,0.236807 l -0.45679,-1.194322 q 0.14356,-0.06177 0.40459,-0.133845 0.27409,-0.07207 0.61342,-0.133847 0.3524,-0.07207 0.75699,-0.113254 0.4046,-0.04119 0.82224,-0.04119 0.57427,0 1.12243,0.08236 0.54817,0.08237 0.97886,0.288284 0.43071,0.205917 0.69173,0.555978 0.26104,0.339762 0.26104,0.875146 0,0.535386 -0.36545,0.988402 -0.35238,0.453019 -1.14853,0.658936 l 0,0.05148 q 0.84836,0.133845 1.31821,0.576568 0.4829,0.442723 0.4829,1.184024 0,0.586862 -0.30019,1.008994 -0.30018,0.411835 -0.79614,0.679528 -0.48291,0.267692 -1.12243,0.391243 -0.63951,0.133845 -1.30515,0.133845 -0.86139,0 -1.56618,-0.113254 -0.70478,-0.113254 -1.08328,-0.267693 l 0.45681,-1.225207 q 0.30019,0.113254 0.86139,0.236805 0.56122,0.113255 1.33126,0.113255 0.28713,0 0.57427,-0.05149 0.30018,-0.06177 0.53511,-0.185325 0.23493,-0.133846 0.3785,-0.339764 0.14356,-0.205917 0.14356,-0.4942 0,-0.483907 -0.4568,-0.731008 -0.45681,-0.247101 -1.63143,-0.267692 -0.15662,-0.0103 -0.23494,-0.0103 -0.0783,0 -0.27408,0 l -0.35239,0 z" />
      <path
         id="path4790"
         d="m 220.01724,49.13633 -3.34118,0 0,3.016687 -1.78806,0 0,-7.207104 1.78806,0 0,2.934321 3.34118,0 0,-2.934321 1.78805,0 0,7.207104 -1.78805,0 0,-3.016687 z" />
      <path
         id="path4792"
         d="m 223.37657,44.945913 5.41637,0 0,1.256094 -3.62831,0 0,1.678227 3.30203,0 0,1.256096 -3.30203,0 0,1.760593 3.69357,0 0,1.256094 -5.48163,0 0,-7.207104 z" />
      <path
         id="path4794"
         d="m 236.16914,51.854437 q -0.41764,0.236805 -1.07022,0.339765 -0.63952,0.102956 -1.3182,0.102956 -0.82224,0 -1.56618,-0.195619 -0.73089,-0.205918 -1.2921,-0.648641 -0.56122,-0.453019 -0.90055,-1.163432 -0.32629,-0.72071 -0.32629,-1.740001 0,-1.060476 0.36544,-1.770889 0.3785,-0.72071 0.96581,-1.153135 0.60037,-0.442725 1.33125,-0.628048 0.73089,-0.195623 1.46177,-0.195623 0.78309,0 1.3182,0.08237 0.54817,0.08237 0.90056,0.195623 l -0.35239,1.19432 q -0.30019,-0.113255 -0.71783,-0.164736 -0.4046,-0.05148 -0.99192,-0.05148 -1.08327,0 -1.7489,0.607457 -0.65258,0.607455 -0.65258,1.884142 0,0.555974 0.15662,1.019291 0.15662,0.453017 0.46985,0.782486 0.3263,0.31917 0.79615,0.504496 0.4829,0.17503 1.10937,0.17503 0.58732,0 0.99192,-0.09266 0.4046,-0.09266 0.70479,-0.236804 l 0.36543,1.153137 z" />
      <path
         id="path4796"
         d="m 238.37068,51.048407 -0.4788,1.10461 -1.78805,0 3.28897,-7.258584 1.31821,0 3.28898,7.258584 -1.87941,0 -0.50459,-1.101752 m -0.41373,-1.145536 -1.18702,-2.79794 -1.15064,2.8012" />
    </g>
  </g>
</svg>
